Coordinates
version=1
nRows=60
nColumns=12
inDegrees=yes

Units are S.I. units (second, meters, Newtons, ...)
Angles are in degrees

endheader
time	SC_y	SC_z	SC_x	AC_y	AC_z	AC_x	GH_y	GH_z	GH_yy	EL_x	PS_y
       0.0              -30.78          14.01          36.42           48.0          1.573         -19.44          72.38          59.24          15.52          138.0          29.48
   0.02996              -30.78          14.01          36.42           48.0           1.57         -19.44          72.35          59.25          15.51          138.0           29.5
   0.05993              -30.78          14.01          36.42          48.01          1.567         -19.44          72.31          59.25          15.51          138.0          29.51
   0.08989              -30.77           14.0          36.43          48.01          1.563         -19.44          72.27          59.25           15.5          138.0          29.53
    0.1199              -30.77           14.0          36.43          48.01           1.56         -19.43          72.23          59.26           15.5          138.0          29.55
    0.1498              -30.77           14.0          36.44          48.01          1.556         -19.43          72.18          59.26          15.49          138.0          29.57
    0.1798              -30.77           14.0          36.44          48.02          1.551         -19.43          72.14          59.26          15.48          138.0          29.59
    0.2097              -30.76           14.0          36.44          48.02          1.547         -19.43          72.08          59.27          15.47          138.0          29.61
    0.2397              -30.76           14.0          36.45          48.02          1.542         -19.43          72.03          59.27          15.47          138.0          29.64
    0.2697              -30.76          13.99          36.45          48.03          1.537         -19.43          71.97          59.28          15.46          138.0          29.66
    0.2996              -30.75          13.99          36.46          48.03          1.532         -19.43          71.91          59.28          15.45          138.0          29.69
    0.3296              -30.75          13.99          36.47          48.03          1.526         -19.43          71.84          59.29          15.44          138.0          29.72
    0.3596              -30.74          13.99          36.47          48.04          1.519         -19.42          71.76          59.29          15.42          138.0          29.75
    0.3895              -30.74          13.99          36.48          48.04          1.513         -19.42          71.68           59.3          15.41          138.0          29.78
    0.4195              -30.73          13.98          36.49          48.05          1.505         -19.42           71.6          59.31           15.4          138.0          29.82
    0.4494              -30.73          13.98           36.5          48.05          1.497         -19.42           71.5          59.32          15.39          138.0          29.86
    0.4794              -30.72          13.98           36.5          48.06          1.488         -19.42           71.4          59.33          15.37          137.9          29.91
    0.5094              -30.71          13.97          36.51          48.06          1.479         -19.41          71.29          59.33          15.35          137.9          29.95
    0.5393              -30.71          13.97          36.52          48.07          1.468         -19.41          71.17          59.34          15.33          137.9          30.01
    0.5693               -30.7          13.97          36.54          48.08          1.457         -19.41          71.04          59.36          15.31          137.9          30.06
    0.5993              -30.69          13.96          36.55          48.09          1.445         -19.41          70.89          59.37          15.29          137.9          30.13
    0.6292              -30.68          13.96          36.56          48.09          1.431          -19.4          70.73          59.38          15.27          137.9          30.19
    0.6592              -30.67          13.95          36.58           48.1          1.416          -19.4          70.55           59.4          15.24          137.9          30.27
    0.6891              -30.66          13.94          36.59          48.12          1.399         -19.39          70.36          59.41          15.21          137.9          30.36
    0.7191              -30.65          13.94          36.61          48.13           1.38         -19.39          70.14          59.43          15.18          137.9          30.45
    0.7491              -30.63          13.93          36.63          48.14          1.359         -19.38           69.9          59.45          15.14          137.8          30.55
     0.779              -30.62          13.92          36.66          48.16          1.336         -19.38          69.62          59.48           15.1          137.8          30.67
     0.809               -30.6          13.91          36.69          48.17          1.309         -19.37          69.32           59.5          15.05          137.8           30.8
     0.839              -30.58           13.9          36.72          48.19          1.279         -19.36          68.97          59.53           15.0          137.8          30.95
    0.8689              -30.55          13.89          36.75          48.21          1.246         -19.36          68.58          59.56          14.94          137.7          31.12
    0.8989              -30.53          13.88          36.79          48.24          1.207         -19.35          68.13           59.6          14.87          137.7          31.32
    0.9288               -30.5          13.86          36.83          48.27          1.163         -19.33          67.61          59.65           14.8          137.7          31.54
    0.9588              -30.46          13.84          36.89           48.3          1.112         -19.32          67.02           59.7          14.71          137.6           31.8
    0.9888              -30.42          13.82          36.95          48.34          1.052         -19.31          66.33          59.75           14.6          137.6          32.09
     1.019              -30.37           13.8          37.02          48.38         0.9828         -19.29          65.52          59.82          14.48          137.5          32.44
     1.049              -30.32          13.77           37.1          48.44         0.9008         -19.27          64.57           59.9          14.33          137.5          32.85
     1.079              -30.25          13.73           37.2           48.5         0.8034         -19.24          63.43           60.0          14.16          137.4          33.34
     1.109              -30.17          13.69          37.32          48.58         0.6867         -19.21          62.07          60.11          13.96          137.3          33.93
     1.139              -30.07          13.64          37.46          48.67         0.5455         -19.18          60.43          60.25          13.71          137.2          34.64
     1.169              -29.95          13.58          37.63          48.78          0.373         -19.14          58.42          60.42           13.4          137.0           35.5
     1.199              -29.81           13.5          37.85          48.92         0.1601         -19.08          55.95          60.63          13.03          136.8          36.57
     1.228              -29.62           13.4          38.12          49.09        -0.1054         -19.02          52.86          60.89          12.56          136.6           37.9
     1.258              -29.39          13.28          38.45          49.31        -0.4398         -18.93          48.97          61.22          11.97          136.3          39.58
     1.288               -29.1          13.13          38.88          49.58         -0.865         -18.82          44.02          61.64          11.22          136.0          41.71
     1.318              -28.72          12.93          39.44          49.93         -1.409         -18.69          37.69          62.17          10.26          135.5          44.44
     1.348              -28.24          12.68          40.14          50.39         -2.108         -18.51          29.56          62.86          9.029          134.9          47.95
     1.378              -27.63          12.36          41.04          50.97           -3.0         -18.29          19.19          63.73          7.456          134.2          52.42
     1.408              -26.85          11.96          42.18          51.69         -4.121          -18.0          6.137          64.84          5.478          133.2          58.05
     1.438              -25.91          11.46          43.56          52.58         -5.488         -17.66         -9.765          66.18          3.068          132.1          64.91
     1.468              -24.82          10.89          45.16           53.6         -7.072         -17.26          -28.2          67.73         0.2744          130.7          72.86
     1.498              -23.64          10.27           46.9          54.72         -8.788         -16.83         -48.16          69.42         -2.751          129.3          81.47
     1.528              -22.45          9.657          48.64          55.83          -10.5         -16.39         -68.12           71.1         -5.776          127.9          90.07
     1.558              -21.36          9.086          50.24          56.85         -12.09          -16.0         -86.55          72.66         -8.569          126.5          98.02
     1.588              -20.42          8.593          51.62          57.74         -13.45         -15.65         -102.5           74.0         -10.98          125.4          104.9
     1.618              -19.64          8.189          52.76          58.47         -14.58         -15.37         -115.5           75.1         -12.96          124.4          110.5
     1.648              -19.03          7.868          53.66          59.04         -15.47         -15.14         -125.9          75.98         -14.53          123.7          115.0
     1.678              -18.55          7.616          54.36           59.5         -16.17         -14.97         -134.0          76.67         -15.76          123.1          118.5
     1.708              -18.17           7.42          54.91          59.85         -16.71         -14.83         -140.3           77.2         -16.72          122.6          121.2
     1.738              -17.88          7.267          55.34          60.12         -17.14         -14.72         -145.3          77.62         -17.47          122.3          123.4
     1.768              -17.65          7.146          55.68          60.34         -17.47         -14.64         -149.2          77.95         -18.06          122.0          125.0
